# xmcd
#
# Track frame offsets:
#	150
#	15524
#	32323
#	45519
#	61490
#	76996
#	91240
#	104559
#	120235
#	136449
#	149433
#	165996
#	178969
#	194739
#	211707
#	229517
#	243582
#	258491
#	276334
#	291076
#	306370
#
# Disc length: 4290 seconds
#
# Revision: 1
# Processed by: cddbd v1.5.2PL0 Copyright (c) Steve Scherf et al.
# Submitted via: EZCDAudioConverter 7.0.0.1
#
DISCID=2810c015
DTITLE=Various Artist - Milakas Dziesmas 7
DYEAR=2010
DGENRE=Country
TTITLE0=ANDREJS OZOLS UN DRAUGI - Rudens
TTITLE1=KASPARS ANTESS - Neskaties Atpakaļ
TTITLE2=DOBELES ZEMESSARGI - Latvju Meitenēm
TTITLE3=MŪZIKAS KOLEKCIJA - Bolderājas Valsis
TTITLE4=NORMUNDS RUTULIS - Portrets
TTITLE5=ZEĻĻI - Sniegotā Diena
TTITLE6=VĒJA RUNA - Tiko Nokusis Ir Sniegs
TTITLE7=PATRIOTI LG - Dzeiveite
TTITLE8=KALVADOSS - Nāc Klētiņā
TTITLE9=DUETS SANDRA - Nūjotājs
TTITLE10=JŪRKANT - Sapnis
TTITLE11=KLAIDONIS - Ferma
TTITLE12=TĒRVETE - Piezvani
TTITLE13=AIGARIŅŠ - Dzintara Meitene
TTITLE14=HARIJS JONIŠKĀNS - Tu Esi Man
TTITLE15=INGA and NORMUNDS - Skolas Valsis
TTITLE16=APVEDCEĻŠ - Pēdējā Deja
TTITLE17=ĒRIKIS GRUZNIŅŠ - Kā Lai Pasaku
TTITLE18=LAUKU MUZIKANTI - Vēlreiz Pie Tevis
TTITLE19=ROJA - Pa Jūru Braucu Es
TTITLE20=BALTIE LĀČI - Burinieks
EXTD=
EXTT0=
EXTT1=
EXTT2=
EXTT3=
EXTT4=
EXTT5=
EXTT6=
EXTT7=
EXTT8=
EXTT9=
EXTT10=
EXTT11=
EXTT12=
EXTT13=
EXTT14=
EXTT15=
EXTT16=
EXTT17=
EXTT18=
EXTT19=
EXTT20=
PLAYORDER=
